<svg width="200" height="356" viewBox="0 0 200 356" xmlns="http://www.w3.org/2000/svg">
  <defs>
    <filter id="funShadow" x="-20%" y="-20%" width="140%" height="140%">
      <feDropShadow dx="3" dy="3" stdDeviation="2" flood-color="rgba(34,197,94,0.5)"/>
    </filter>
  </defs>
  
  <!-- Marco divertido con formas onduladas -->
  <path d="M 10 20 Q 20 10 30 20 Q 40 30 50 20 Q 60 10 70 20 Q 80 30 90 20 Q 100 10 110 20 Q 120 30 130 20 Q 140 10 150 20 Q 160 30 170 20 Q 180 10 190 20 L 190 30 Q 180 40 170 30 Q 160 20 150 30 Q 140 40 130 30 Q 120 20 110 30 Q 100 40 90 30 Q 80 20 70 30 Q 60 40 50 30 Q 40 20 30 30 Q 20 40 10 30 Z" 
        fill="#22C55E" 
        filter="url(#funShadow)" 
        opacity="0.8"/>
        
  <path d="M 10 326 Q 20 336 30 326 Q 40 316 50 326 Q 60 336 70 326 Q 80 316 90 326 Q 100 336 110 326 Q 120 316 130 326 Q 140 336 150 326 Q 160 316 170 326 Q 180 336 190 326 L 190 336 Q 180 346 170 336 Q 160 326 150 336 Q 140 346 130 336 Q 120 326 110 336 Q 100 346 90 336 Q 80 326 70 336 Q 60 346 50 336 Q 40 326 30 336 Q 20 346 10 336 Z" 
        fill="#22C55E" 
        filter="url(#funShadow)" 
        opacity="0.8"/>
        
  <!-- Bordes laterales ondulados -->
  <path d="M 20 40 Q 10 50 20 60 Q 30 70 20 80 Q 10 90 20 100 Q 30 110 20 120 Q 10 130 20 140 Q 30 150 20 160 Q 10 170 20 180 Q 30 190 20 200 Q 10 210 20 220 Q 30 230 20 240 Q 10 250 20 260 Q 30 270 20 280 Q 10 290 20 300 Q 30 310 20 320" 
        stroke="#22C55E" 
        stroke-width="3" 
        fill="none" 
        filter="url(#funShadow)"/>
        
  <path d="M 180 40 Q 190 50 180 60 Q 170 70 180 80 Q 190 90 180 100 Q 170 110 180 120 Q 190 130 180 140 Q 170 150 180 160 Q 190 170 180 180 Q 170 190 180 200 Q 190 210 180 220 Q 170 230 180 240 Q 190 250 180 260 Q 170 270 180 280 Q 190 290 180 300 Q 170 310 180 320" 
        stroke="#22C55E" 
        stroke-width="3" 
        fill="none" 
        filter="url(#funShadow)"/>
        
  <!-- Estrellitas decorativas -->
  <polygon points="50,60 52,66 58,66 53,70 55,76 50,72 45,76 47,70 42,66 48,66" fill="#22C55E" opacity="0.7"/>
  <polygon points="150,80 152,86 158,86 153,90 155,96 150,92 145,96 147,90 142,86 148,86" fill="#22C55E" opacity="0.7"/>
  <polygon points="70,280 72,286 78,286 73,290 75,296 70,292 65,296 67,290 62,286 68,286" fill="#22C55E" opacity="0.7"/>
  <polygon points="130,260 132,266 138,266 133,270 135,276 130,272 125,276 127,270 122,266 128,266" fill="#22C55E" opacity="0.7"/>
</svg>
